<svg width="21.000000" height="17.000000" viewBox="0 0 21 17" fill="none" xmlns="http://www.w3.org/2000/svg" xmlns:xlink="http://www.w3.org/1999/xlink">
	<path id="path" d="M0 4.91L0 13.5C0 14.32 0.29 15.03 0.87 15.62C1.46 16.2 2.17 16.5 3 16.5L18 16.5C18.82 16.5 19.53 16.2 20.12 15.62C20.7 15.03 21 14.32 21 13.5L21 4.91L12.07 10.41C11.02 11.05 9.97 11.05 8.92 10.41L0 4.91Z" fill="#6F7A9B" fill-opacity="1.000000" fill-rule="nonzero"/>
	<path id="path" d="M21 3.15L21 3C21 2.17 20.7 1.46 20.12 0.87C19.53 0.29 18.82 0 18 0L3 0C2.17 0 1.46 0.29 0.87 0.87C0.29 1.46 0 2.17 0 3L0 3.15L9.71 9.13C10.23 9.45 10.76 9.45 11.28 9.13L21 3.15Z" fill="#6F7A9B" fill-opacity="1.000000" fill-rule="nonzero"/>
</svg>
